<?xml version="1.0" encoding="UTF-8" standalone="no"?>
<svg
   xmlns:dc="http://purl.org/dc/elements/1.1/"
   xmlns:cc="http://creativecommons.org/ns#"
   xmlns:rdf="http://www.w3.org/1999/02/22-rdf-syntax-ns#"
   xmlns:svg="http://www.w3.org/2000/svg"
   xmlns="http://www.w3.org/2000/svg"
   xmlns:xlink="http://www.w3.org/1999/xlink"
   id="svg8"
   version="1.1"
   viewBox="0 0 22.225 20.637501"
   height="78"
   width="84">
  <defs
     id="defs2">
    <marker
       id="marker5641"
       orient="auto"
       refX="0"
       refY="0"
       style="overflow:visible">
      <path
         d="M 8.72,4.03 -2.21,0.02 8.72,-4 c -1.75,2.37 -1.74,5.62 0,8.03 z"
         id="path5639"
         style="fill:#000000;fill-opacity:1;stroke:#000000;stroke-opacity:1"
         transform="matrix(-0.3,0,0,-0.3,0.69,0)" />
    </marker>
    <marker
       id="marker5081"
       orient="auto"
       refX="0"
       refY="0"
       style="overflow:visible">
      <path
         d="M 8.72,4.03 -2.21,0.02 8.72,-4 c -1.75,2.37 -1.74,5.62 0,8.03 z"
         id="path5079"
         style="fill:#000000;fill-opacity:1;stroke:#000000;stroke-opacity:1"
         transform="matrix(0.3,0,0,0.3,-0.69,0)" />
    </marker>
    <linearGradient
       id="linearGradient4838">
      <stop
         id="stop4834"
         offset="0"
         style="stop-color:#f0f0f0;stop-opacity:1;" />
      <stop
         id="stop4836"
         offset="1"
         style="stop-color:#f0f0f0;stop-opacity:0;" />
    </linearGradient>
    <linearGradient
       gradientUnits="userSpaceOnUse"
       y2="11.209592"
       x2="22.18158"
       y1="11.209592"
       x1="13.287721"
       id="linearGradient4840"
       xlink:href="#linearGradient4838" />
  </defs>
  <metadata
     id="metadata5">
    <rdf:RDF>
      <cc:Work
         rdf:about="">
        <dc:format>image/svg+xml</dc:format>
        <dc:type
           rdf:resource="http://purl.org/dc/dcmitype/StillImage" />
        <dc:title></dc:title>
      </cc:Work>
    </rdf:RDF>
  </metadata>
  <g
     style="display:inline;opacity:1"
     id="layer2">
    <a
       transform="translate(0,0.09354434)"
       id="a4884">
      <path
         id="path4009"
         transform="scale(0.26458333)"
         d="M 38.691406,0.71484375 A 38.00699,38.00699 0 0 0 0.68359375,38.720703 38.00699,38.00699 0 0 0 38.691406,76.728516 38.00699,38.00699 0 0 0 76.697266,38.720703 38.00699,38.00699 0 0 0 38.691406,0.71484375 Z M 18.076172,10.361328 c 0.193212,-0.002 0.385554,0.06835 0.535156,0.214844 l 0.369141,0.361328 c 0.299206,0.292996 0.304712,0.769155 0.01172,1.068359 l -1.792969,1.830079 5.988281,5.865234 3.117188,-3.183594 c 0.292993,-0.299206 0.769154,-0.304714 1.068359,-0.01172 l 0.369141,0.361329 c 0.299272,0.292993 0.302761,0.769154 0.0098,1.068359 l -1.662109,1.697265 19.826172,19.414063 0.06055,4.203125 0.333985,-0.341797 c 0.07325,-0.07479 0.192778,-0.07716 0.267578,-0.0039 l 0.375,0.369141 c 0.07479,0.07325 0.07716,0.190825 0.0039,0.265624 l -0.367187,0.375 4.058594,3.972657 0.193359,2.351562 11.476562,11.236328 -0.416015,0.425782 -11.476563,-11.238282 -2.294922,-0.205078 -4.05664,-3.974609 -0.375,0.382812 c -0.07325,0.0749 -0.190825,0.0752 -0.265625,0.002 L 43.056641,46.5 c -0.0749,-0.07325 -0.0752,-0.192778 -0.002,-0.267578 l 0.345703,-0.351563 -4.128907,-0.04883 -3.792968,-3.714843 1.972656,-2.011719 -0.78125,-0.765625 -1.972656,2.013672 -4.871094,-4.771485 1.972656,-2.013672 -0.78125,-0.763671 -1.972656,2.013671 -4.78125,-4.683593 1.972656,-2.013672 -0.78125,-0.763672 -1.970703,2.013672 -4.037109,-3.953125 -1.734375,1.769531 c -0.292996,0.299206 -0.769155,0.304714 -1.06836,0.01172 L 16.277297,27.83789 c -0.299207,-0.292996 -0.304715,-0.769155 -0.01172,-1.06836 l 3.419922,-3.492187 -5.988281,-5.863282 -1.685547,1.720704 c -0.292996,0.299208 -0.771108,0.304714 -1.070313,0.01172 L 10.574219,18.785156 C 10.275012,18.492161 10.269504,18.016001 10.5625,17.716797 l 6.980469,-7.128906 c 0.146498,-0.149603 0.33999,-0.224563 0.533203,-0.226563 z"
         style="opacity:1;fill:#262600;fill-opacity:1;fill-rule:nonzero;stroke:none;stroke-width:6.28535366;stroke-linecap:round;stroke-linejoin:miter;stroke-miterlimit:4;stroke-dasharray:none;stroke-opacity:1" />
    </a>
  </g>
  <g
     style="display:inline;opacity:1"
     id="layer4" />
  <g
     style="display:inline"
     id="layer3">
    <text
       id="text4819"
       y="18.325619"
       x="13.229843"
       style="font-style:normal;font-variant:normal;font-weight:bold;font-stretch:normal;font-size:19.75555611px;line-height:125%;font-family:'Open Sans';-inkscape-font-specification:'Open Sans, Bold';font-variant-ligatures:normal;font-variant-caps:normal;font-variant-numeric:normal;font-feature-settings:normal;text-align:start;letter-spacing:0px;word-spacing:0px;writing-mode:lr-tb;text-anchor:start;fill:#f1f1f1;fill-opacity:1;stroke:none;stroke-width:0.26458332px;stroke-linecap:butt;stroke-linejoin:miter;stroke-opacity:1"
       xml:space="preserve"><tspan
         style="font-style:normal;font-variant:normal;font-weight:bold;font-stretch:normal;font-size:19.75555611px;font-family:'Open Sans';-inkscape-font-specification:'Open Sans, Bold';font-variant-ligatures:normal;font-variant-caps:normal;font-variant-numeric:normal;font-feature-settings:normal;text-align:start;writing-mode:lr-tb;text-anchor:start;fill:#f1f1f1;fill-opacity:1;stroke-width:0.26458332px"
         y="18.325619"
         x="13.229843"
         id="tspan4817">?</tspan></text>
  </g>
</svg>
